<?xml version="1.0" encoding="iso-8859-1"?>
<!-- Generator: Adobe Illustrator 19.2.0, SVG Export Plug-In . SVG Version: 6.00 Build 0)  -->
<svg version="1.1" id="Capa_1" xmlns="http://www.w3.org/2000/svg" xmlns:xlink="http://www.w3.org/1999/xlink" x="0px" y="0px"
	 viewBox="0 0 265 165" style="enable-background:new 0 0 265 165;" xml:space="preserve">
<g>
	<g>
		<g>
			<path style="fill:#FFFFFF;" d="M24.631,120.763c1.405,0,2.765,0.277,4.076,0.834c1.311,0.559,2.464,1.325,3.461,2.31
				c1.001,0.981,1.794,2.136,2.382,3.463c0.592,1.325,0.887,2.742,0.887,4.248c0,1.505-0.278,2.925-0.836,4.252
				c-0.557,1.325-1.317,2.478-2.283,3.461c-0.965,0.983-2.105,1.761-3.414,2.335c-1.311,0.571-2.736,0.858-4.272,0.858
				c-0.688,0-1.526-0.221-2.507-0.664c-0.981-0.44-2.097-1.137-3.34-2.087v15.077c0,0.721-0.246,1.319-0.737,1.794
				c-0.491,0.473-1.081,0.711-1.769,0.711c-0.686,0-1.268-0.238-1.743-0.711c-0.475-0.475-0.711-1.073-0.711-1.794v-23.183
				c0.031-1.407,0.334-2.767,0.907-4.08c0.573-1.307,1.352-2.468,2.335-3.484c0.981-1.016,2.118-1.825,3.412-2.431
				C21.772,121.066,23.157,120.763,24.631,120.763z M24.631,137.514c0.817,0,1.579-0.149,2.284-0.444
				c0.702-0.293,1.327-0.713,1.866-1.253c0.539-0.539,0.967-1.159,1.278-1.864c0.311-0.705,0.467-1.483,0.467-2.335
				c0-0.817-0.156-1.579-0.467-2.283c-0.311-0.703-0.739-1.317-1.278-1.841c-0.539-0.524-1.163-0.942-1.866-1.253
				c-0.705-0.311-1.466-0.467-2.284-0.467c-0.821,0-1.583,0.156-2.286,0.467c-0.704,0.311-1.319,0.729-1.843,1.253
				c-0.522,0.524-0.94,1.139-1.253,1.841c-0.309,0.704-0.465,1.466-0.465,2.283c0,0.852,0.156,1.63,0.465,2.335
				c0.313,0.704,0.731,1.325,1.253,1.864c0.524,0.541,1.139,0.96,1.843,1.253C23.048,137.364,23.81,137.514,24.631,137.514z"/>
			<path style="fill:#FFFFFF;" d="M50.621,128.425c1.475,0.166,2.855,0.59,4.151,1.278c1.292,0.688,2.406,1.563,3.34,2.63
				c0.932,1.065,1.671,2.275,2.21,3.633c0.539,1.36,0.811,2.791,0.811,4.297v9.482c0,0.653-0.248,1.221-0.739,1.694
				c-0.489,0.475-1.049,0.715-1.669,0.715c-0.227,0-0.481-0.018-0.762-0.049c-0.277-0.035-0.549-0.125-0.809-0.272
				c-0.264-0.147-0.5-0.35-0.713-0.616c-0.213-0.26-0.338-0.618-0.367-1.077c-0.166,0.066-0.461,0.213-0.885,0.442
				c-0.428,0.229-0.737,0.393-0.934,0.489c-0.362,0.166-0.737,0.313-1.13,0.444c-0.393,0.129-0.803,0.262-1.229,0.393
				c-0.817,0.162-1.702,0.246-2.652,0.246c-2.456,0-4.651-0.666-6.582-1.991c-1.933-1.327-3.373-3.035-4.321-5.132
				c-0.33-0.721-0.582-1.483-0.764-2.286c-0.18-0.801-0.268-1.626-0.268-2.482c0-0.85,0.088-1.669,0.268-2.453
				c0.182-0.786,0.434-1.558,0.764-2.308c0.948-2.13,2.388-3.848,4.321-5.159c1.931-1.309,4.127-1.966,6.582-1.966
				c0.26,0,0.492,0,0.688,0S50.359,128.392,50.621,128.425z M49.198,147.338c0.948,0,1.855-0.18,2.726-0.543
				c0.864-0.358,1.62-0.858,2.259-1.495c0.637-0.639,1.145-1.384,1.522-2.236c0.377-0.852,0.565-1.784,0.565-2.802
				c0-0.915-0.188-1.806-0.565-2.675c-0.377-0.868-0.893-1.622-1.546-2.263c-0.655-0.637-1.409-1.153-2.261-1.546
				c-0.852-0.391-1.751-0.588-2.699-0.588c-0.952,0-1.843,0.188-2.679,0.563c-0.835,0.377-1.581,0.893-2.234,1.548
				c-0.655,0.657-1.171,1.409-1.548,2.259c-0.377,0.852-0.567,1.753-0.567,2.701c0,0.983,0.199,1.901,0.594,2.752
				c0.389,0.852,0.924,1.595,1.595,2.236c0.67,0.639,1.423,1.147,2.259,1.522C47.453,147.15,48.311,147.338,49.198,147.338z"/>
			<path style="fill:#FFFFFF;" d="M76.417,128.23c1.571,0,3.076,0.285,4.516,0.858c1.442,0.573,2.701,1.368,3.781,2.382
				c1.081,1.016,1.946,2.228,2.601,3.637c0.653,1.409,0.981,2.929,0.981,4.567v9.922c0,0.655-0.237,1.212-0.709,1.671
				c-0.477,0.459-1.04,0.705-1.696,0.735c-0.653,0-1.219-0.213-1.694-0.639c-0.473-0.426-0.711-0.967-0.711-1.62v-9.628
				c0-0.983-0.18-1.901-0.539-2.752c-0.36-0.848-0.86-1.593-1.499-2.234c-0.637-0.637-1.393-1.145-2.257-1.522
				c-0.87-0.379-1.812-0.565-2.826-0.565c-0.948,0-1.843,0.172-2.677,0.516c-0.834,0.344-1.571,0.825-2.21,1.45
				c-0.639,0.621-1.147,1.343-1.524,2.159c-0.377,0.819-0.565,1.704-0.565,2.654v9.775c0,0.655-0.244,1.221-0.737,1.692
				c-0.489,0.479-1.063,0.715-1.718,0.715c-0.655,0-1.229-0.213-1.718-0.639c-0.494-0.426-0.737-0.967-0.737-1.62v-9.628
				c0.031-1.636,0.36-3.176,0.983-4.616c0.621-1.442,1.456-2.703,2.505-3.785c1.049-1.079,2.292-1.931,3.733-2.554
				C73.14,128.538,74.713,128.23,76.417,128.23z"/>
			<path style="fill:#FFFFFF;" d="M104.807,128.425c1.47,0.166,2.855,0.59,4.149,1.278c1.294,0.688,2.408,1.563,3.34,2.63
				c0.932,1.065,1.671,2.275,2.21,3.633c0.541,1.36,0.811,2.791,0.811,4.297v9.482c0,0.653-0.246,1.221-0.735,1.694
				c-0.494,0.475-1.049,0.715-1.671,0.715c-0.231,0-0.485-0.018-0.764-0.049c-0.277-0.035-0.547-0.125-0.807-0.272
				c-0.264-0.147-0.502-0.35-0.715-0.616c-0.213-0.26-0.336-0.618-0.367-1.077c-0.164,0.066-0.459,0.213-0.885,0.442
				c-0.426,0.229-0.737,0.393-0.934,0.489c-0.36,0.166-0.737,0.313-1.128,0.444c-0.395,0.129-0.805,0.262-1.229,0.393
				c-0.819,0.162-1.704,0.246-2.652,0.246c-2.458,0-4.651-0.666-6.582-1.991c-1.933-1.327-3.375-3.035-4.325-5.132
				c-0.328-0.721-0.58-1.483-0.76-2.286c-0.18-0.801-0.27-1.626-0.27-2.482c0-0.85,0.09-1.669,0.27-2.453
				c0.18-0.786,0.432-1.558,0.76-2.308c0.95-2.13,2.392-3.848,4.325-5.159c1.931-1.309,4.125-1.966,6.582-1.966
				c0.262,0,0.489,0,0.688,0C104.313,128.376,104.543,128.392,104.807,128.425z M103.382,147.338c0.948,0,1.858-0.18,2.726-0.543
				c0.866-0.358,1.62-0.858,2.259-1.495c0.639-0.639,1.145-1.384,1.522-2.236c0.377-0.852,0.565-1.784,0.565-2.802
				c0-0.915-0.188-1.806-0.565-2.675c-0.377-0.868-0.891-1.622-1.546-2.263c-0.655-0.637-1.409-1.153-2.259-1.546
				c-0.852-0.391-1.753-0.588-2.701-0.588c-0.952,0-1.843,0.188-2.679,0.563c-0.834,0.377-1.579,0.893-2.232,1.548
				c-0.657,0.657-1.171,1.409-1.548,2.259c-0.377,0.852-0.565,1.753-0.565,2.701c0,0.983,0.197,1.901,0.588,2.752
				c0.395,0.852,0.926,1.595,1.599,2.236c0.668,0.639,1.423,1.147,2.255,1.522C101.637,147.15,102.497,147.338,103.382,147.338z"/>
			<path style="fill:#FFFFFF;" d="M127.309,128.376c0.983,0,1.972,0.19,2.97,0.565c0.999,0.379,1.991,0.991,2.974,1.843
				c2.062-1.604,4.059-2.408,5.992-2.408c1.114,0,2.185,0.215,3.217,0.639c1.032,0.424,1.941,1.008,2.726,1.745
				c0.786,0.735,1.409,1.604,1.868,2.603c0.459,0.999,0.688,2.071,0.688,3.217v13.408c0,0.559-0.254,1.057-0.762,1.499
				c-0.51,0.444-1.09,0.666-1.743,0.666c-0.657,0-1.223-0.24-1.696-0.715c-0.475-0.473-0.713-1.04-0.713-1.694v-13.017
				c0-0.95-0.336-1.769-1.008-2.456c-0.672-0.688-1.532-1.032-2.578-1.032c-0.885,0-1.694,0.293-2.433,0.883
				c-0.735,0.592-1.104,1.46-1.104,2.605v13.017c0,0.653-0.238,1.221-0.713,1.694c-0.475,0.475-1.055,0.715-1.743,0.715
				c-0.623,0-1.18-0.215-1.669-0.639c-0.494-0.426-0.737-0.934-0.737-1.526v-13.261c-0.035-1.049-0.412-1.892-1.13-2.529
				c-0.721-0.639-1.524-0.958-2.406-0.958c-0.95,0-1.776,0.328-2.482,0.983c-0.705,0.655-1.073,1.505-1.108,2.554v13.31
				c-0.094,0.526-0.373,1.001-0.832,1.427c-0.459,0.424-0.985,0.639-1.573,0.639c-0.655,0-1.245-0.221-1.767-0.666
				c-0.524-0.442-0.752-0.989-0.686-1.647V136.58c0-1.079,0.221-2.12,0.662-3.119c0.442-0.997,1.038-1.876,1.792-2.628
				c0.754-0.756,1.647-1.354,2.677-1.794C125.024,128.599,126.13,128.376,127.309,128.376z"/>
			<path style="fill:#FFFFFF;" d="M164.354,128.425c1.473,0.166,2.855,0.59,4.147,1.278c1.292,0.688,2.408,1.563,3.34,2.63
				c0.934,1.065,1.671,2.275,2.212,3.633c0.539,1.36,0.809,2.791,0.809,4.297v9.517c0,0.655-0.246,1.221-0.735,1.696
				c-0.492,0.471-1.049,0.711-1.671,0.711c-0.227,0-0.483-0.014-0.76-0.047c-0.279-0.035-0.551-0.125-0.811-0.272
				c-0.262-0.145-0.512-0.342-0.713-0.614c-0.211-0.287-0.336-0.655-0.369-1.114c-0.164,0.066-0.459,0.213-0.885,0.442
				c-0.426,0.229-0.737,0.393-0.932,0.489c-0.361,0.166-0.739,0.313-1.13,0.444c-0.393,0.129-0.803,0.262-1.229,0.393
				c-0.819,0.162-1.704,0.246-2.65,0.246c-2.46,0-4.653-0.666-6.582-1.991c-1.935-1.327-3.377-3.035-4.325-5.132
				c-0.328-0.721-0.58-1.483-0.76-2.286c-0.18-0.801-0.27-1.626-0.27-2.482c0-0.85,0.09-1.669,0.27-2.453
				c0.18-0.786,0.432-1.558,0.76-2.308c0.948-2.13,2.39-3.848,4.325-5.159c1.929-1.309,4.123-1.966,6.582-1.966
				c0.26,0,0.489,0,0.686,0C163.861,128.376,164.09,128.392,164.354,128.425z M162.927,147.338c0.948,0,1.858-0.18,2.726-0.543
				c0.866-0.358,1.62-0.858,2.261-1.495c0.637-0.639,1.145-1.384,1.522-2.236c0.377-0.852,0.565-1.784,0.565-2.802
				c0-0.915-0.188-1.806-0.565-2.675c-0.377-0.868-0.891-1.622-1.546-2.263c-0.655-0.637-1.411-1.153-2.261-1.546
				c-0.852-0.391-1.753-0.588-2.701-0.588c-0.95,0-1.841,0.188-2.677,0.563c-0.836,0.377-1.579,0.893-2.236,1.548
				c-0.653,0.657-1.167,1.409-1.544,2.259c-0.377,0.852-0.565,1.753-0.565,2.701c0,0.983,0.195,1.901,0.59,2.752
				c0.391,0.852,0.924,1.595,1.593,2.236c0.672,0.639,1.427,1.147,2.261,1.522C161.184,147.15,162.044,147.338,162.927,147.338z
				 M164.338,122.418c0.426-0.326,0.885-0.492,1.376-0.492c0.522,0,0.991,0.15,1.403,0.444c0.408,0.293,0.643,0.719,0.709,1.274
				v-0.047c0.066,0.59-0.074,1.128-0.418,1.618c-0.344,0.494-0.795,0.772-1.35,0.838l-7.663,1.081
				c-0.098,0.066-0.15-0.033-0.15-0.295l0.102-0.098L164.338,122.418z"/>
		</g>
		<g>
			<path style="fill:#E63D2F;" d="M232.19,160.9l-4.612-0.997c1.06,0.681,2.16,1.37,3.354,2.074c0,0,4.284,1.902,1.54-0.877
				C232.361,161.021,232.284,160.967,232.19,160.9z"/>
			<path style="fill:#D74127;" d="M229.75,140.323c-0.556-0.018-1.145-0.049-1.766-0.093l1.822,2.763L229.75,140.323z"/>
			<path style="fill:#EE2A37;" d="M233.816,144.03l-1.619-3.776c-0.677,0.082-1.505,0.099-2.447,0.069l0.056,2.671L233.816,144.03z"
				/>
			<path style="fill:#3FAE49;" d="M178.033,75.325c0.021-2.028,0.219-4.641,0.699-6.784l-2.829,0.751
				c-0.486,2.078-0.79,4.686-0.724,7.795l0.342,0.519L178.033,75.325z"/>
			<path style="fill:#FFC60A;" d="M240.408,129.171l-0.497-0.818c-1.352-0.678-2.719-1.34-4.025-1.974l0.969,3.53L240.408,129.171z"
				/>
			<path style="fill:#006E9E;" d="M199.951,84.751l-0.309,8.767c1.002-0.894,2.024-1.97,3.06-3.228l4.281-9.103L199.951,84.751z"/>
			<polygon style="fill:#6FBF4A;" points="207.465,56.878 202.75,66.84 204.97,65.343 			"/>
			<polygon style="fill:#B51E84;" points="232.677,38.551 220.352,20.042 216.535,43.073 			"/>
			<path style="fill:#FDB525;" d="M240.777,128.79c-0.287-0.147-0.576-0.292-0.865-0.437l0.497,0.818L240.777,128.79z"/>
			<polygon style="fill:#E0E328;" points="207.465,56.878 217.389,59.859 216.535,43.073 			"/>
			<polygon style="fill:#A4CF5F;" points="216.535,43.073 217.389,59.859 232.677,38.551 			"/>
			<polygon style="fill:#A4CF5F;" points="217.389,59.859 223.072,65.056 229.789,63.894 			"/>
			<polygon style="fill:#6FBF4A;" points="232.677,38.551 217.389,59.859 229.789,63.894 			"/>
			<path style="fill:#3FAE49;" d="M229.789,63.894l6.528-15.059c0.232-2.64,0.505-5.572,0.777-8.616l-4.418-1.668L229.789,63.894z"
				/>
			<polygon style="fill:#007DBB;" points="197.947,84.233 199.951,84.751 196.373,79.685 			"/>
			<path style="fill:#00A7E0;" d="M202.703,90.29c1.572-1.908,3.178-4.255,4.806-7.135l-0.525-1.968L202.703,90.29z"/>
			<path style="fill:#007DBB;" d="M207.509,83.155c0.146-0.259,0.293-0.532,0.44-0.799l-0.964-1.169L207.509,83.155z"/>
			<path style="fill:#E0E328;" d="M244.008,57.934l2.405,0.028C245.543,57.746,244.706,57.799,244.008,57.934z"/>
			<path style="fill:#00A7E0;" d="M223.67,108.679c-0.837,0.982-1.637,1.946-2.382,2.881l2.47,0.468L223.67,108.679z"/>
			<path style="fill:#FFE600;" d="M228.037,122.659l0.209-1.075c-0.353-0.844-0.381-2.073,0.613-3.767l-5.1-5.789L228.037,122.659z"
				/>
			<polygon style="fill:#E0E328;" points="223.072,65.056 229.185,74.504 229.789,63.894 			"/>
			<path style="fill:#6FBF4A;" d="M236.503,59.491c-0.472-0.239-0.84-0.721-0.81-1.654c0.038-1.992,0.289-5.19,0.624-9.002
				l-6.528,15.059L236.503,59.491z"/>
			<path style="fill:#00B2E2;" d="M196.373,79.685l-0.426,0.406c-0.687,1.691-1.478,3.43-2.356,5.029l4.356-0.887L196.373,79.685z"
				/>
			<path style="fill:#007DBB;" d="M252.659,86.083c0.377-1.31,0.548-2.529,0.503-3.601l-6.637-0.594L252.659,86.083z"/>
			<path style="fill:#00A7E0;" d="M253.162,82.482c-0.053-1.266-0.373-2.336-1.062-3.017c0,0-0.631-0.951-4.496-1.618
				c0,0-0.108-0.016-0.245-0.069l-0.835,4.109L253.162,82.482z"/>
			<polygon style="fill:#007DBB;" points="206.984,81.187 207.315,77.545 199.951,84.751 			"/>
			<path style="fill:#FFC60A;" d="M241.156,128.985c-0.126-0.065-0.252-0.13-0.378-0.195l-0.369,0.381L241.156,128.985z"/>
			<path style="fill:#00A7E0;" d="M234.96,104.158l0.1-8.431c-0.511,0.609-1.045,1.233-1.603,1.875l-2.822,7.922L234.96,104.158z"/>
			<path style="fill:#EE2A37;" d="M229.806,142.993l-1.822-2.763c-0.36-0.026-0.73-0.054-1.107-0.086l-1.009,3.902L229.806,142.993z
				"/>
			<path style="fill:#F78D2C;" d="M226.876,140.144c-1.017-0.086-2.086-0.191-3.178-0.298l2.169,4.2L226.876,140.144z"/>
			<path style="fill:#E0E328;" d="M178.303,79.206l-2.781-1.601l1.212,9.021c0.386,1.123,0.828,2.166,1.354,3.127l3.834-1.26
				C179.414,85.036,178.651,81.639,178.303,79.206z"/>
			<path style="fill:#3FAE49;" d="M175.179,77.087c0.041,1.931,0.196,4.008,0.611,6.338c0.288,1.131,0.597,2.195,0.943,3.201
				l-1.212-9.021L175.179,77.087z"/>
			<path style="fill:#00B2E2;" d="M221.288,111.56c-1.659,2.079-3.032,4.005-3.908,5.647l6.378-5.179L221.288,111.56z"/>
			<polygon style="fill:#B51E84;" points="212.386,29.577 209.062,35.343 216.535,43.073 			"/>
			<polygon style="fill:#E91E76;" points="220.352,20.042 212.386,29.577 216.535,43.073 			"/>
			<path style="fill:#7B2981;" d="M220.352,20.042l-8.477,2.743c-0.342,1.035-0.692,2.125-1.052,3.275l1.564,3.517L220.352,20.042z"
				/>
			<path style="fill:#A8228B;" d="M213.639,17.756c-0.588,1.568-1.17,3.228-1.764,5.029l8.477-2.743L213.639,17.756z"/>
			<polygon style="fill:#E0E328;" points="204.97,65.343 202.75,66.84 202.289,73.347 			"/>
			<path style="fill:#007DBB;" d="M239.863,87.81c0.074,0.411-0.028,0.936-0.31,1.579l0.955-0.775L239.863,87.81z"/>
			<path style="fill:#E0E328;" d="M229.465,75.383c0.105-0.049,0.208-0.092,0.312-0.14l-0.593-0.739L229.465,75.383z"/>
			<path style="fill:#00B2E2;" d="M232.14,83.761l1.123,3.516c0.911,0.044,2.158-0.048,3.85-0.311
				c1.02-0.159,1.705-0.103,2.156,0.104l-5.131-6.393C233.453,81.783,232.71,82.834,232.14,83.761z"/>
			<path style="fill:#00B2E2;" d="M246.525,81.887l0.835-4.109c-0.116-0.045-0.248-0.125-0.382-0.256l-6.469,11.091L246.525,81.887z
				"/>
			<path style="fill:#E0E328;" d="M229.777,75.243c0.434-0.197,0.861-0.379,1.283-0.548l-1.876-0.191L229.777,75.243z"/>
			<path style="fill:#00A7E0;" d="M246.977,77.522c-0.227-0.221-0.407-0.614-0.401-1.251l-10.674-1.084
				c0.036,0.179,0.088,0.338,0.088,0.562c0,1.611-0.861,3.326-1.853,4.928l5.131,6.393c0.339,0.155,0.533,0.405,0.594,0.74
				l0.645,0.804L246.977,77.522z"/>
			<path style="fill:#A4CF5F;" d="M178.303,79.206c-0.071-0.498-0.131-0.968-0.179-1.376c-0.031-0.268-0.053-0.613-0.07-0.991
				l-2.532,0.766L178.303,79.206z"/>
			<path style="fill:#C7DA2C;" d="M196.208,79.435c-0.086,0.218-0.172,0.436-0.261,0.655l0.426-0.406L196.208,79.435z"/>
			<path style="fill:#6FBF4A;" d="M178.054,76.84c-0.019-0.447-0.027-0.955-0.021-1.515l-2.511,2.28L178.054,76.84z"/>
			<path style="fill:#E91E76;" d="M229.803,2.902c-1.476-0.186-3.361-0.025-5.383,0.836l11.301,3.146
				C234.082,4.554,231.958,3.173,229.803,2.902z"/>
			<path style="fill:#C7DA2C;" d="M231.778,150.988c0.011,0.002,0.021,0.004,0.032,0.005l-0.087-0.05L231.778,150.988z"/>
			<polygon style="fill:#EE2A37;" points="225.867,144.045 231.722,150.943 229.806,142.993 			"/>
			<polygon style="fill:#F78D2C;" points="229.806,142.993 231.722,150.943 233.816,144.03 			"/>
			<path style="fill:#007DBB;" d="M240.508,88.614l-0.955,0.775c-0.479,1.092-1.419,2.486-2.663,4.087l2.785,0.72L240.508,88.614z"
				/>
			<path style="fill:#006E9E;" d="M239.675,94.196l-2.785-0.72c-0.151,0.194-0.316,0.398-0.476,0.598l3.232,2.599L239.675,94.196z"
				/>
			<path style="fill:#B51E84;" d="M208.298,34.412c-0.102,0.347-0.214,0.729-0.319,1.086l1.084-0.155L208.298,34.412z"/>
			<path style="fill:#EE2A37;" d="M248.814,149.732c0.282-0.133,0.549-0.267,0.807-0.402l-1.853-16.355
				c-0.022-0.015-0.041-0.034-0.064-0.049l-3.118,18.027C246.037,150.666,247.461,150.289,248.814,149.732z"/>
			<path style="fill:#00B2E2;" d="M228.958,117.654c0.077-0.126,0.143-0.247,0.232-0.378c0.578-0.814,2.372-3.032,4.672-5.832
				l-4.774-4.664L228.958,117.654z"/>
			<path style="fill:#00A7E0;" d="M229.088,106.78l4.774,4.664c0.106-0.129,0.219-0.266,0.327-0.397l-3.554-5.523L229.088,106.78z"
				/>
			<path style="fill:#007DBB;" d="M230.635,105.524l3.554,5.523c0.349-0.424,0.701-0.852,1.069-1.298l-0.298-5.591L230.635,105.524z
				"/>
			<path style="fill:#C7DA2C;" d="M183.309,90.207c-0.516-0.57-0.973-1.143-1.388-1.715l-3.834,1.26
				c0.688,1.257,1.518,2.379,2.586,3.343c0.817,0.81,1.914,1.749,3.238,2.562l2.47-4.046
				C185.387,91.578,184.361,91.156,183.309,90.207z"/>
			<path style="fill:#006E9E;" d="M237.11,100.572l-1.476-5.534c-0.187,0.226-0.378,0.456-0.573,0.688l-0.1,8.431L237.11,100.572z"
				/>
			<path style="fill:#00B2E2;" d="M237.11,100.572l3.27,2.99c0.391-0.471,0.779-0.938,1.164-1.403l-1.899-5.487L237.11,100.572z"/>
			<path style="fill:#007DBB;" d="M239.646,96.673l-3.232-2.599c-0.252,0.316-0.509,0.635-0.781,0.964l1.476,5.534L239.646,96.673z"
				/>
			<polygon style="fill:#A4CF5F;" points="208.073,37.986 207.465,56.878 216.535,43.073 			"/>
			<path style="fill:#E0E328;" d="M208.073,37.986l-0.693-0.453c-0.05,0.169-0.093,0.316-0.143,0.488
				c-0.415,1.585-0.89,3.44-1.393,5.425l1.621,13.433L208.073,37.986z"/>
			<polygon style="fill:#7B2981;" points="209.062,35.343 208.073,37.986 216.535,43.073 			"/>
			<path style="fill:#B51E84;" d="M209.062,35.343l-1.084,0.155c-0.197,0.669-0.391,1.328-0.598,2.035l0.693,0.453L209.062,35.343z"
				/>
			<path style="fill:#B51E84;" d="M217.971,9.157c-1.054,1.434-2.072,3.152-3.01,5.241c-0.456,1.09-0.891,2.21-1.322,3.358
				l6.713,2.286L217.971,9.157z"/>
			<path style="fill:#E91E76;" d="M222.347,4.865c-1.467,0.972-2.956,2.36-4.376,4.293l2.381,10.885L222.347,4.865z"/>
			<path style="fill:#00A7E0;" d="M230.635,105.524l-2.74-1.663c-0.191,0.214-0.381,0.427-0.572,0.64l1.764,2.279L230.635,105.524z"
				/>
			<path style="fill:#00B2E2;" d="M233.457,97.602c-1.729,1.988-3.648,4.114-5.562,6.258l2.74,1.663L233.457,97.602z"/>
			<path style="fill:#FDB525;" d="M235.887,126.378c-2.47-1.199-4.716-2.303-6.214-3.248l7.184,6.778L235.887,126.378z"/>
			<path style="fill:#00A7E0;" d="M233.262,87.277l-1.123-3.516C230.921,85.741,230.522,87.145,233.262,87.277z"/>
			<path style="fill:#6FBF4A;" d="M228.343,75.917c0.371-0.18,0.747-0.36,1.122-0.534l-0.28-0.878L228.343,75.917z"/>
			<path style="fill:#E0E328;" d="M223.951,77.904c1.037-0.309,2.654-1.144,4.391-1.988l0.842-1.412L223.951,77.904z"/>
			<path style="fill:#E12726;" d="M220.622,152.627l-4.192-1.462c1.173,1.173,2.554,2.426,4.187,3.75l3.741,0.932
				C223.146,154.942,221.861,153.874,220.622,152.627z"/>
			<path style="fill:#EE2A37;" d="M217.729,149.189l-3.541-0.444c0.646,0.76,1.393,1.569,2.243,2.419l4.192,1.462
				C219.599,151.598,218.611,150.454,217.729,149.189z"/>
			<path style="fill:#C7DA2C;" d="M230.715,150.817c0.351,0.061,0.706,0.117,1.062,0.172l-0.055-0.045L230.715,150.817z"/>
			<path style="fill:#EE2A37;" d="M216.125,146.5c0,0,6.519,2.923,14.59,4.316l1.007,0.126l-5.855-6.898l-13.298,2.646
				c0.462,0.638,0.998,1.325,1.618,2.054l3.541,0.444C217.141,148.345,216.598,147.45,216.125,146.5z"/>
			<path style="fill:#FDB525;" d="M223.699,139.845c-4.815-0.476-9.986-0.986-12.394-0.016l-1.285,2.313
				c0.07,0.268,0.169,0.551,0.332,0.868c0.05,0.128,0.093,0.25,0.158,0.392c0.466,0.875,1.116,1.985,2.059,3.289l13.298-2.646
				L223.699,139.845z"/>
			<polygon style="fill:#E0E328;" points="207.315,77.545 211.271,66.973 202.289,73.347 			"/>
			<polygon style="fill:#A4CF5F;" points="202.289,73.347 211.271,66.973 204.97,65.343 			"/>
			<polygon style="fill:#E0E328;" points="204.97,65.343 211.271,66.973 207.465,56.878 			"/>
			<polygon style="fill:#A4CF5F;" points="211.271,66.973 217.389,59.859 207.465,56.878 			"/>
			<path style="fill:#3FAE49;" d="M222.653,72.027c0.18,2.537,0.078,5.042,0.158,5.685c0.048,0.383,0.484,0.389,1.141,0.193
				l5.233-3.4L222.653,72.027z"/>
			<path style="fill:#6FBF4A;" d="M223.072,65.056l-1.498,1.985c0.65,1.167,0.944,3.085,1.078,4.986l6.532,2.477L223.072,65.056z"/>
			<path style="fill:#6FBF4A;" d="M211.271,66.973l4.565,2.173c0.957-1.213,1.783-2.041,2.493-2.553l-0.941-6.734L211.271,66.973z"
				/>
			<path style="fill:#3FAE49;" d="M217.389,59.859l0.941,6.734c1.575-1.134,2.591-0.726,3.245,0.448l1.498-1.985L217.389,59.859z"/>
			<path style="fill:#00A7E0;" d="M207.949,82.356c0.28-0.51,0.56-1.018,0.841-1.559c0.095-0.183,0.182-0.34,0.275-0.52l-2.081,0.91
				L207.949,82.356z"/>
			<path style="fill:#EE2A37;" d="M231.722,150.943l0.087,0.05c2.771,0.421,5.683,0.64,8.569,0.491l-4.157-8.488L231.722,150.943z"
				/>
			<path style="fill:#F78D2C;" d="M240.379,151.484c1.422-0.074,2.827-0.255,4.208-0.53l3.118-18.027
				c-0.031-0.021-0.057-0.047-0.088-0.067c-0.005-0.004-0.011-0.008-0.016-0.012l-11.378,10.148L240.379,151.484z"/>
			<polygon style="fill:#F78D2C;" points="233.816,144.03 231.722,150.943 236.222,142.996 			"/>
			<path style="fill:#FDB525;" d="M236.222,142.996l-2.455-3.254c-0.312,0.264-0.855,0.426-1.57,0.512l1.619,3.776L236.222,142.996z
				"/>
			<path style="fill:#FFC60A;" d="M236.856,129.909l-7.138,4.284c2.805,2.115,4.808,3.916,4.309,5.213
				c-0.05,0.129-0.145,0.237-0.261,0.336l2.455,3.254L236.856,129.909z"/>
			<polygon style="fill:#FDB525;" points="236.856,129.909 236.222,142.996 240.408,129.171 			"/>
			<path style="fill:#FDB525;" d="M247.6,132.848c-1.544-1.182-3.594-2.369-5.788-3.521l-5.59,13.669L247.6,132.848z"/>
			<path style="fill:#F78D2C;" d="M236.222,142.996l5.59-13.669c-0.218-0.114-0.436-0.228-0.656-0.342l-0.747,0.186L236.222,142.996
				z"/>
			<path style="fill:#006E9E;" d="M235.258,109.748c0.877-1.063,1.797-2.175,2.738-3.31l-3.035-2.28L235.258,109.748z"/>
			<path style="fill:#007DBB;" d="M234.96,104.158l3.035,2.28c0.392-0.474,0.788-0.951,1.184-1.428l-2.07-4.437L234.96,104.158z"/>
			<path style="fill:#00A7E0;" d="M239.18,105.009c0.401-0.484,0.8-0.965,1.2-1.447l-3.27-2.99L239.18,105.009z"/>
			<path style="fill:#C7DA2C;" d="M209.947,141.3l0.404-0.855C210.13,140.684,209.991,140.967,209.947,141.3z"/>
			<path style="fill:#FFC60A;" d="M210.352,140.444l-0.404,0.855c-0.033,0.251-0.01,0.532,0.072,0.843l1.285-2.313
				C210.904,139.991,210.584,140.194,210.352,140.444z"/>
			<path style="fill:#F78D2C;" d="M219.172,125.678c0.364,0.395,0.748,0.787,1.158,1.177l7.707-4.196L219.172,125.678z"/>
			<path style="fill:#FDB525;" d="M217.38,117.207c-0.724,1.358-1.117,2.528-1.019,3.41c0.136,1.22,0.755,2.438,1.639,3.642
				l5.759-12.231L217.38,117.207z"/>
			<path style="fill:#FDB525;" d="M223.758,112.028L218,124.258c0.35,0.476,0.739,0.95,1.172,1.42l8.865-3.02L223.758,112.028z"/>
			<path style="fill:#B51E84;" d="M237.094,40.22c0.117-1.304,0.233-2.624,0.346-3.952l-4.764,2.284L237.094,40.22z"/>
			<path style="fill:#00A7E0;" d="M223.758,112.028l5.1,5.789c0.013-0.022,0.028-0.045,0.041-0.067l-2.62-8.383L223.758,112.028z"/>
			<path style="fill:#006E9E;" d="M226.28,109.367l2.62,8.383c0.019-0.032,0.039-0.064,0.059-0.095l0.129-10.874L226.28,109.367z"/>
			<path style="fill:#007DBB;" d="M226.28,109.367l-1.263-2.249c-0.457,0.524-0.906,1.045-1.347,1.562l0.088,3.348L226.28,109.367z"
				/>
			<path style="fill:#007DBB;" d="M229.088,106.78l-1.764-2.279c-0.419,0.47-0.835,0.94-1.248,1.409l0.205,3.457L229.088,106.78z"/>
			<path style="fill:#006E9E;" d="M226.075,105.909c-0.356,0.404-0.708,0.806-1.058,1.208l1.263,2.249L226.075,105.909z"/>
			<path style="fill:#A4CF5F;" d="M181.518,65.88l5.244-2.342c-0.009-0.097-0.001-0.191-0.019-0.289l-5.843,1.637
				C180.987,65.115,181.18,65.501,181.518,65.88z"/>
			<path style="fill:#A4CF5F;" d="M180.251,65.068l-3.342,0.936c-0.256,0.645-0.503,1.413-0.741,2.265l3.025-1.351
				C179.482,66.111,179.832,65.468,180.251,65.068z"/>
			<path style="fill:#E0E328;" d="M185.088,66.572c1.096-0.342,1.804-1.636,1.674-3.034l-5.244,2.342
				C182.123,66.557,183.198,67.162,185.088,66.572z"/>
			<path style="fill:#6FBF4A;" d="M179.195,66.917l-3.025,1.351c-0.092,0.329-0.182,0.663-0.266,1.023l2.829-0.751
				C178.863,67.954,179.019,67.411,179.195,66.917z"/>
			<path style="fill:#E0E328;" d="M180.827,64.682c0,0,0.028,0.087,0.073,0.204l5.843-1.637c-0.168-0.939-0.728-1.899-1.847-2.632
				c-1.904-0.982-4.365-0.821-6.734,2.828c-0.312,0.489-0.778,1.362-1.252,2.559l3.342-0.936
				C180.432,64.896,180.62,64.754,180.827,64.682z"/>
			<path style="fill:#E0E328;" d="M200.198,66.106c-0.221,0.887-0.42,1.684-0.604,2.416l3.156-1.682L200.198,66.106z"/>
			<path style="fill:#3FAE49;" d="M207.465,56.878l-5.393,1.672c-0.687,2.773-1.331,5.374-1.874,7.555l2.552,0.734L207.465,56.878z"
				/>
			<path style="fill:#6FBF4A;" d="M205.844,43.446c-1.187,4.683-2.546,10.157-3.772,15.104l5.393-1.672L205.844,43.446z"/>
			<path style="fill:#B51E84;" d="M208.6,33.39c-0.1,0.338-0.2,0.674-0.303,1.023l0.764,0.931L208.6,33.39z"/>
			<path style="fill:#752F8A;" d="M212.386,29.577l-2.579-0.22c-0.384,1.267-0.783,2.601-1.207,4.033l0.461,1.954L212.386,29.577z"
				/>
			<path style="fill:#A8228B;" d="M210.823,26.06c-0.326,1.042-0.664,2.14-1.015,3.297l2.579,0.22L210.823,26.06z"/>
			<path style="fill:#EE2A37;" d="M224.358,155.847l-3.741-0.932c0.99,0.803,2.062,1.628,3.247,2.479l3.667,0.603
				C226.621,157.438,225.524,156.717,224.358,155.847z"/>
			<path style="fill:#E12726;" d="M229.794,159.331c-0.371-0.231-1.189-0.676-2.263-1.335l-3.667-0.603
				c1.135,0.815,2.384,1.655,3.714,2.511l4.612,0.997C230.732,159.867,231.161,160.18,229.794,159.331z"/>
			<path style="fill:#FFE600;" d="M227.538,132.58c0.708,0.515,1.385,1.014,2.03,1.498l-1.791-5.69L227.538,132.58z"/>
			<path style="fill:#FFC60A;" d="M221.974,128.322c1.773,1.491,3.732,2.923,5.564,4.257l0.239-4.191L221.974,128.322z"/>
			<path style="fill:#FDB525;" d="M227.777,128.389l1.791,5.69c0.052,0.039,0.099,0.075,0.15,0.114l7.138-4.284L227.777,128.389z"/>
			<path style="fill:#FFE600;" d="M228.037,122.659l-7.707,4.196c0.521,0.495,1.069,0.984,1.644,1.468l5.803,0.066L228.037,122.659z
				"/>
			<path style="fill:#F78D2C;" d="M236.856,129.909l-7.184-6.778c-0.01-0.006-0.022-0.013-0.031-0.019c0,0-0.318-0.152-0.673-0.485
				l-1.191,5.762L236.856,129.909z"/>
			<path style="fill:#FDB525;" d="M227.777,128.389l1.191-5.762c-0.036-0.034-0.072-0.073-0.108-0.111l-0.824,0.143L227.777,128.389
				z"/>
			<path style="fill:#C7DA2C;" d="M206.984,81.187l3.415-3.409c0.248-0.453,0.486-0.877,0.725-1.3l-3.809,1.067L206.984,81.187z"/>
			<path style="fill:#C7DA2C;" d="M209.065,80.277c0.459-0.878,0.905-1.715,1.334-2.499l-3.415,3.409L209.065,80.277z"/>
			<path style="fill:#6FBF4A;" d="M207.315,77.545l3.809-1.067c0.248-0.44,0.492-0.868,0.729-1.276l-0.581-8.229L207.315,77.545z"/>
			<path style="fill:#E0E328;" d="M211.853,75.202c1.531-2.63,2.853-4.624,3.983-6.056l-4.565-2.173L211.853,75.202z"/>
			<path style="fill:#7B2981;" d="M237.44,36.268c0.363-4.26,0.69-8.563,0.873-12.418l-5.636,14.702L237.44,36.268z"/>
			<path style="fill:#A8228B;" d="M232.677,38.551l5.636-14.702c0.081-1.7,0.133-3.313,0.148-4.795l-18.109,0.988L232.677,38.551z"
				/>
			<path style="fill:#7B2981;" d="M238.461,19.054c0.006-0.568,0.004-1.11-0.001-1.637L223.58,4.13
				c-0.408,0.211-0.819,0.461-1.233,0.735l-1.995,15.177L238.461,19.054z"/>
			<path style="fill:#A8228B;" d="M237.908,11.578c-0.524-1.848-1.285-3.41-2.188-4.695L224.42,3.738
				c-0.278,0.118-0.557,0.245-0.839,0.391l14.88,13.288C238.433,14.892,238.269,12.852,237.908,11.578z"/>
			<path style="fill:#3FAE49;" d="M247.042,74.315l-3.446-11.82l-14.411,12.009l1.876,0.191c2.415-0.967,4.482-1.306,4.842,0.492
				l10.674,1.084C246.582,75.788,246.724,75.143,247.042,74.315z"/>
			<polygon style="fill:#6FBF4A;" points="229.185,74.504 243.596,62.495 229.789,63.894 			"/>
			<path style="fill:#E0E328;" d="M247.042,74.315c0.082-0.212,0.134-0.396,0.243-0.635c1.129-2.485,2.308-6.694,2.372-10.082
				l-6.061-1.102L247.042,74.315z"/>
			<path style="fill:#A4CF5F;" d="M243.596,62.495l-1.308-4.072c-1.468,0.457-3.915,1.185-3.915,1.185s-1.081,0.283-1.87-0.116
				l-6.713,4.403L243.596,62.495z"/>
			<path style="fill:#6FBF4A;" d="M249.657,63.597c0.035-1.876-0.282-3.485-1.131-4.425l-4.93,3.323L249.657,63.597z"/>
			<path style="fill:#6FBF4A;" d="M243.555,58.039c-0.47,0.12-0.857,0.256-1.096,0.331c-0.052,0.016-0.116,0.036-0.171,0.053
				l1.308,4.072L243.555,58.039z"/>
			<path style="fill:#3FAE49;" d="M248.526,59.172c-0.097-0.107-0.188-0.222-0.3-0.311c-0.595-0.476-1.211-0.75-1.814-0.9
				l-2.405-0.028c-0.161,0.031-0.308,0.068-0.453,0.104l0.04,4.456L248.526,59.172z"/>
			<path style="fill:#00A7E0;" d="M241.545,102.16c1.615-1.946,3.151-3.797,4.471-5.395l-6.369-0.092L241.545,102.16z"/>
			<path style="fill:#007DBB;" d="M239.646,96.673l6.369,0.092c0.274-0.332,0.549-0.665,0.802-0.972l-7.142-1.597L239.646,96.673z"
				/>
			<path style="fill:#006E9E;" d="M239.675,94.196l7.142,1.597c0.463-0.562,0.874-1.063,1.253-1.527l-7.562-5.653L239.675,94.196z"
				/>
			<path style="fill:#007DBB;" d="M240.508,88.614l7.562,5.653c0.227-0.278,0.458-0.56,0.649-0.796
				c0.417-0.514,0.784-1.046,1.146-1.578l-3.34-10.005L240.508,88.614z"/>
			<path style="fill:#006E9E;" d="M249.865,91.892c1.318-1.937,2.256-3.942,2.794-5.81l-6.134-4.195L249.865,91.892z"/>
			<path style="fill:#F78D2C;" d="M228.71,122.418l0.003-0.062c-0.176-0.209-0.34-0.468-0.468-0.773l-0.209,1.075L228.71,122.418z"
				/>
			<path style="fill:#FFE600;" d="M228.037,122.659l0.824-0.143c-0.025-0.026-0.05-0.05-0.075-0.078l-0.076-0.02L228.037,122.659z"
				/>
			<path style="fill:#C7DA2C;" d="M228.786,122.438c-0.024-0.027-0.048-0.053-0.073-0.082l-0.003,0.062L228.786,122.438z"/>
			<path style="fill:#007DBB;" d="M191.856,87.887c-1.638,2.26-3.489,3.79-5.475,3.724l-2.47,4.046
				c0.615,0.377,1.278,0.726,1.988,1.021l10.512-4.146L191.856,87.887z"/>
			<path style="fill:#007DBB;" d="M196.411,92.532l1.583,2.309c0.543-0.394,1.092-0.827,1.648-1.323l0.309-8.767L196.411,92.532z"/>
			<path style="fill:#00A7E0;" d="M197.947,84.233l-4.356,0.887c-0.546,0.993-1.126,1.928-1.734,2.767l4.555,4.645L197.947,84.233z"
				/>
			<polygon style="fill:#00B2E2;" points="196.411,92.532 199.951,84.751 197.947,84.233 			"/>
			<path style="fill:#EE2A37;" d="M253.666,144.688c1.013-3.327-1.343-8.644-5.898-11.712l1.853,16.355
				C251.629,148.279,252.933,147.09,253.666,144.688z"/>
			<path style="fill:#00B2E2;" d="M185.899,96.678c2.828,1.177,6.372,1.486,10.337-0.709l0.175-3.437L185.899,96.678z"/>
			<path style="fill:#00A7E0;" d="M196.236,95.969c0.578-0.32,1.164-0.696,1.759-1.128l-1.583-2.309L196.236,95.969z"/>
			<polygon style="fill:#006E9E;" points="196.373,79.685 199.951,84.751 200.742,74.603 			"/>
			<polygon style="fill:#A4CF5F;" points="199.951,84.751 207.315,77.545 200.742,74.603 			"/>
			<path style="fill:#3FAE49;" d="M200.742,74.603l-2.642-0.561c-0.457,1.472-1.098,3.378-1.892,5.394l0.164,0.249L200.742,74.603z"
				/>
			<polygon style="fill:#3FAE49;" points="200.742,74.603 207.315,77.545 202.289,73.347 			"/>
			<path style="fill:#6FBF4A;" d="M202.75,66.84l-3.156,1.682c-0.365,1.452-0.656,2.598-0.832,3.252
				c-0.133,0.495-0.357,1.285-0.662,2.268l2.642,0.561L202.75,66.84z"/>
			<polygon style="fill:#E0E328;" points="202.75,66.84 200.742,74.603 202.289,73.347 			"/>
			<path style="fill:#F78D2C;" d="M199.356,146.491l-0.532-6.65c-0.061-0.101-0.129-0.194-0.194-0.291l-2.145,3.475L199.356,146.491
				z"/>
			<path style="fill:#FDB525;" d="M200.146,146.707c-0.071-1.104-0.141-2.175-0.19-3.096c-0.073-1.384-0.482-2.696-1.132-3.771
				l0.532,6.65L200.146,146.707z"/>
			<path style="fill:#6FBF4A;" d="M146.45,84.44c0.12,0.141,0.267,0.311,0.394,0.459l5.241-3.589
				c-0.225-0.221-0.454-0.447-0.674-0.664l-7.271,1.048C144.868,82.572,145.64,83.489,146.45,84.44z"/>
			<path style="fill:#007DBB;" d="M166.342,106.633l3.254-5.858c-0.007-0.219,0.084-0.358,0.245-0.442l1.646-2.963
				c-0.923-0.299-1.753-0.701-2.121-0.854c-0.326-0.128-0.726-0.357-1.156-0.627l-1.97,0.677L166.342,106.633z"/>
			<path style="fill:#C7DA2C;" d="M168.929,81.775c-0.11-0.086-0.217-0.157-0.324-0.228l-0.295,0.528L168.929,81.775z"/>
			<polygon style="fill:#C7DA2C;" points="166.24,96.565 162.355,92.152 164.167,95.996 			"/>
			<path style="fill:#006E9E;" d="M173.163,106.755c-1.79-2.524-3.532-4.942-3.568-5.981l-3.254,5.858L173.163,106.755z"/>
			<path style="fill:#00A7E0;" d="M171.072,100.426c2.205,0.722,3.798,1.021,4.967,1.036l-1.53-4.05
				c-0.745,0.505-1.943,0.307-3.022-0.043l-1.646,2.963C170.066,100.216,170.442,100.22,171.072,100.426z"/>
			<path style="fill:#00B2E2;" d="M178.738,99.558l-3.537-3.504c-0.069,0.674-0.321,1.107-0.691,1.358l1.53,4.05
				C177.943,101.486,178.666,100.718,178.738,99.558z"/>
			<path style="fill:#C7DA2C;" d="M162.355,92.152l-5.55,4.021c0.142,0.158,0.283,0.316,0.425,0.474l6.936-0.65L162.355,92.152z"/>
			<path style="fill:#C7DA2C;" d="M168.21,95.888c-0.185-0.116-0.367-0.228-0.57-0.368l-1.4,1.045L168.21,95.888z"/>
			<path style="fill:#C7DA2C;" d="M172.142,120.287c0.094,0.054,0.187,0.109,0.28,0.161l0.196-0.713L172.142,120.287z"/>
			<path style="fill:#E12726;" d="M196.486,143.025l-0.025,0.091c0.262,0.384,0.378,1.85,0.487,3.725l2.409-0.351L196.486,143.025z"
				/>
			<path style="fill:#FFC60A;" d="M196.046,143.236c0.173-0.277,0.305-0.28,0.414-0.12l0.025-0.091l-4.927-4.606
				c-0.411,0.3-0.825,0.642-1.243,1.073l4.597,6.886C195.669,144.62,196.046,143.236,196.046,143.236z"/>
			<path style="fill:#F78D2C;" d="M183.02,125.939l-0.957-2.165c-0.158-0.039-0.167-0.1-0.086-0.194l-1.584-3.582
				c-1.118-0.438-2.42-0.869-3.608-1.353l-4.167,1.09L183.02,125.939z"/>
			<path style="fill:#FDB525;" d="M184.887,124.815c-0.265-0.614-0.607-0.974-1.056-0.974c-1.032,0-1.548-0.013-1.769-0.067
				l0.957,2.165L184.887,124.815z"/>
			<path style="fill:#FDB525;" d="M182.99,122.019c0.068-0.812-1.083-1.427-2.597-2.021l1.584,3.582
				C182.182,123.34,182.918,122.885,182.99,122.019z"/>
			<path style="fill:#FDB525;" d="M172.618,119.735l-0.196,0.713c2.751,1.557,5.245,2.627,5.245,2.627s-1.479,0.119-1.827,0.818
				c-0.854,1.877,3.758,2.753,4.647,2.879l2.531-0.832L172.618,119.735z"/>
			<path style="fill:#A4CF5F;" d="M168.127,87.379l1.766-4.715c-0.339-0.353-0.661-0.652-0.964-0.889l-0.619,0.3L168.127,87.379z"/>
			<path style="fill:#FFE600;" d="M172.618,119.735l4.167-1.09c-0.537-0.218-1.055-0.444-1.507-0.693
				c-2.286-1.258-0.286-1.305,0.987-2.798l-2.445-2.116L172.618,119.735z"/>
			<path style="fill:#00B2E2;" d="M176.266,115.154c0.288-0.338,0.54-0.75,0.695-1.268c0.109-0.365-0.012-0.899-0.282-1.539
				l-2.858,0.69L176.266,115.154z"/>
			<path style="fill:#00A7E0;" d="M176.679,112.348c-0.242-0.575-0.604-1.236-1.046-1.951l-1.812,2.642L176.679,112.348z"/>
			<path style="fill:#007DBB;" d="M173.821,113.038l1.812-2.642c-0.702-1.136-1.589-2.399-2.47-3.641l-6.822-0.122L173.821,113.038z
				"/>
			<path style="fill:#E0E328;" d="M156.157,95.448l1.135-9.048c-0.09-0.086-0.179-0.173-0.268-0.26l-7.909,1.379
				C151.158,89.852,153.621,92.618,156.157,95.448z"/>
			<path style="fill:#C7DA2C;" d="M156.805,96.172l5.55-4.021l-3.609-4.358c-0.483-0.461-0.967-0.924-1.454-1.394l-1.135,9.048
				C156.374,95.69,156.588,95.929,156.805,96.172z"/>
			<path style="fill:#C7DA2C;" d="M149.115,87.519l7.909-1.379c-1.681-1.626-3.356-3.272-4.938-4.83l-5.241,3.589
				C147.516,85.684,148.272,86.557,149.115,87.519z"/>
			<path style="fill:#EE2A37;" d="M196.947,146.841c0.034,0.587,0.07,1.212,0.108,1.853l3.368,3.253
				c-0.026-0.874-0.072-1.804-0.126-2.746l-0.941-2.71L196.947,146.841z"/>
			<path style="fill:#D74127;" d="M200.297,149.201c-0.048-0.841-0.098-1.672-0.151-2.493l-0.79-0.217L200.297,149.201z"/>
			<path style="fill:#EE2A37;" d="M186.161,153.736c1.13,0.193,2.149,0.006,3.078-0.402l-5.85-2.018
				C184.193,152.964,185.14,153.451,186.161,153.736z"/>
			<path style="fill:#D74127;" d="M199.459,157.143c0.139-0.022,0.262-0.075,0.373-0.154l-1.448-0.499
				C198.673,156.954,199.022,157.212,199.459,157.143z"/>
			<path style="fill:#E12726;" d="M183.389,151.317l5.85,2.018c0.945-0.414,1.787-1.07,2.53-1.868l-8.918-1.516
				C183.022,150.476,183.201,150.932,183.389,151.317z"/>
			<path style="fill:#EE2A37;" d="M198.384,156.489l1.448,0.499c0.695-0.495,0.858-2.058,0.688-4.035l-3.161-0.537
				C197.562,154.154,197.872,155.666,198.384,156.489z"/>
			<path style="fill:#E12726;" d="M197.359,152.417l3.161,0.537c-0.025-0.286-0.053-0.577-0.091-0.878
				c-0.001-0.041-0.004-0.088-0.005-0.129l-3.368-3.253C197.129,149.933,197.22,151.22,197.359,152.417z"/>
			<path style="fill:#EE2A37;" d="M182.851,149.951l8.918,1.516c1.184-1.274,2.115-2.866,2.8-4.324l-12.18,1.096
				C182.535,148.882,182.688,149.454,182.851,149.951z"/>
			<path style="fill:#F78D2C;" d="M181.44,141.485c0.249,2.908,0.571,5.084,0.949,6.753l12.18-1.096
				c0.123-0.262,0.237-0.514,0.344-0.764l-4.597-6.886c-0.338,0.348-0.677,0.735-1.016,1.175c-2.704,3.508-3.084-1.214-3.345-6.538
				l-4.559,6.79C181.41,141.108,181.424,141.286,181.44,141.485z"/>
			<path style="fill:#3FAE49;" d="M172.087,85.341l-3.96,2.038l1.719,1.228c0.885-0.701,0.921-1.982,0.921-1.982
				c1.298,1.781,2.142,2.933,2.832,4.216l0.837-1.962C173.543,87.413,172.685,86.169,172.087,85.341z"/>
			<path style="fill:#6FBF4A;" d="M172.087,85.341c-0.478-0.663-0.796-1.075-0.796-1.075c-0.514-0.637-0.97-1.158-1.398-1.602
				l-1.766,4.715L172.087,85.341z"/>
			<path style="fill:#E0E328;" d="M177.237,94.445c-0.157-0.423-0.35-0.85-0.537-1.275l-1.88,0.537
				c0.105,0.309,0.211,0.619,0.319,0.971c0.094,0.552,0.101,0.995,0.062,1.376l3.537,3.504
				C178.824,98.151,177.989,96.194,177.237,94.445z"/>
			<path style="fill:#FFC60A;" d="M181.129,131.516c-0.06,2.857-0.08,4.533,0.162,8l4.213-7.54L181.129,131.516z"/>
			<path style="fill:#FDB525;" d="M181.291,139.516c0.031,0.435,0.066,0.905,0.105,1.403l4.559-6.79
				c-0.023-0.478-0.046-0.959-0.07-1.441l-0.382-0.712L181.291,139.516z"/>
			<path style="fill:#FFE600;" d="M183.02,125.939l-2.531,0.832c0.024,0.003,0.056,0.008,0.074,0.011
				c0.701,0.087,0.637,0.847,0.637,0.847c-0.021,1.572-0.049,2.812-0.072,3.887l4.375,0.46L183.02,125.939z"/>
			<path style="fill:#FFC60A;" d="M185.885,132.688c-0.012-0.261-0.025-0.523-0.038-0.783l-0.344,0.071L185.885,132.688z"/>
			<path style="fill:#FFC60A;" d="M185.503,131.976l0.317-0.571c-0.145-2.721-0.358-5.259-0.933-6.59l-1.867,1.124L185.503,131.976z
				"/>
			<path style="fill:#F78D2C;" d="M185.847,131.905c-0.009-0.168-0.018-0.333-0.027-0.5l-0.317,0.571L185.847,131.905z"/>
			<path style="fill:#C7DA2C;" d="M143.328,80.703l6.268-1.839c-0.164-0.161-0.323-0.316-0.483-0.472l-6.792,1.061
				C142.643,79.859,142.979,80.276,143.328,80.703z"/>
			<path style="fill:#C7DA2C;" d="M144.14,81.694l7.271-1.048c-0.629-0.619-1.231-1.21-1.815-1.782l-6.268,1.839
				C143.594,81.029,143.86,81.356,144.14,81.694z"/>
			<path style="fill:#E0E328;" d="M142.321,79.453l6.792-1.061c-0.629-0.615-1.237-1.206-1.79-1.735
				c-4.098-3.925-6.042-5.328-7.242-5.762l-1.619,3.06C139.235,75.392,140.578,77.259,142.321,79.453z"/>
			<path style="fill:#6FBF4A;" d="M165.753,81.314c-0.67,0.347-1.13,1.168-1.314,2.175l3.871-1.415L165.753,81.314z"/>
			<path style="fill:#3FAE49;" d="M168.605,81.546c-0.918-0.613-1.739-0.71-2.711-0.335c-0.053,0.021-0.09,0.077-0.141,0.103
				l2.557,0.761L168.605,81.546z"/>
			<path style="fill:#E0E328;" d="M140.082,70.895c-0.645-0.233-1.078-0.19-1.507-0.099c-0.017,0.004-0.027,0.012-0.043,0.017
				c-0.969,0.276-0.933,0.849-0.661,1.804c0.112,0.393,0.324,0.839,0.592,1.338L140.082,70.895z"/>
			<path style="fill:#FFC60A;" d="M198.63,139.55c-0.551-0.816-1.246-1.47-2.053-1.869l-0.092,5.344L198.63,139.55z"/>
			<path style="fill:#FFE600;" d="M196.577,137.681c-1.422-0.704-3.172-0.608-5.019,0.738l4.927,4.606L196.577,137.681z"/>
			<path style="fill:#C7DA2C;" d="M175.575,90.853l-1.818,0.284c0.304,0.595,0.583,1.241,0.858,1.99l1.524-1.163
				C175.952,91.591,175.771,91.217,175.575,90.853z"/>
			<path style="fill:#C7DA2C;" d="M176.137,91.964l-1.524,1.163c0.068,0.185,0.137,0.38,0.205,0.58l1.88-0.537
				C176.521,92.764,176.336,92.365,176.137,91.964z"/>
			<path style="fill:#C7DA2C;" d="M174.436,88.879l-0.837,1.962c0.053,0.098,0.106,0.196,0.157,0.296l1.818-0.284
				C175.203,90.165,174.819,89.508,174.436,88.879z"/>
			<path style="fill:#00B2E2;" d="M161.699,101.617c0.342,0.38,0.69,0.766,1.023,1.136l0.242-0.06L161.699,101.617z"/>
			<polygon style="fill:#00A7E0;" points="166.342,106.633 166.24,96.565 162.964,102.693 			"/>
			<path style="fill:#006E9E;" d="M164.167,95.996l-6.936,0.65c1.514,1.688,3.022,3.364,4.469,4.971l1.265,1.076L164.167,95.996z"/>
			<polygon style="fill:#00B2E2;" points="162.964,102.693 166.24,96.565 164.167,95.996 			"/>
			<path style="fill:#FDB525;" d="M173.821,113.038l-3.005-1.194c0.035,0.045,0.105,0.127,0.124,0.153
				c0.744,1.312-0.789,0.604-2.11,0.065c-1.664-0.576-2.572-0.503-3.059-0.108l6.848,7.781L173.821,113.038z"/>
			<path style="fill:#006E9E;" d="M166.342,106.633l-0.084,0.051c2.409,2.683,4.117,4.603,4.559,5.16l3.005,1.194L166.342,106.633z"
				/>
			<path style="fill:#00A7E0;" d="M162.722,102.753c0.082,0.091,0.158,0.175,0.239,0.265l0.003-0.326L162.722,102.753z"/>
			<path style="fill:#007DBB;" d="M162.964,102.693l-0.003,0.326c1.181,1.312,2.297,2.552,3.297,3.665l0.084-0.051L162.964,102.693z
				"/>
			<path style="fill:#FFE600;" d="M165.77,111.955c-0.456,0.369-0.546,1.018-0.514,1.706c0.136,2.245,3.636,4.758,6.886,6.626
				l0.476-0.551L165.77,111.955z"/>
			<path style="fill:#C7DA2C;" d="M166.421,88.46c0.055,0.031,0.111,0.061,0.168,0.089l0.011-0.252L166.421,88.46z"/>
			<path style="fill:#C7DA2C;" d="M166.24,96.565l0.088-2.015c-1.022-0.799-2.183-1.793-3.421-2.899l-0.551,0.501L166.24,96.565z"/>
			<path style="fill:#C7DA2C;" d="M167.64,95.521c-0.406-0.28-0.844-0.605-1.312-0.971l-0.088,2.015L167.64,95.521z"/>
			<path style="fill:#C7DA2C;" d="M166.589,88.55c0.171,0.086,0.309,0.205,0.502,0.266c0.489,0.155,0.902,0.215,1.27,0.224
				l-1.761-0.742L166.589,88.55z"/>
			<path style="fill:#C7DA2C;" d="M165.854,88.12c0.164,0.139,0.373,0.23,0.566,0.341l0.179-0.163L165.854,88.12z"/>
			<path style="fill:#C7DA2C;" d="M162.907,91.651c-1.319-1.18-2.723-2.486-4.161-3.857l3.609,4.358L162.907,91.651z"/>
			<path style="fill:#6FBF4A;" d="M166.6,88.298l1.761,0.742c0.655,0.016,1.139-0.159,1.485-0.433l-1.719-1.228L166.6,88.298z"/>
			<path style="fill:#A4CF5F;" d="M168.309,82.074l-3.871,1.415c-0.287,1.568,0.094,3.513,1.416,4.631l0.746,0.178L168.309,82.074z"
				/>
			<polygon style="fill:#C7DA2C;" points="166.6,88.298 168.127,87.379 168.309,82.074 			"/>
		</g>
	</g>
</g>
</svg>
