<?xml version="1.0" encoding="utf-8"?>
<!-- Generator: Adobe Illustrator 22.1.0, SVG Export Plug-In . SVG Version: 6.00 Build 0)  -->
<svg version="1.1" id="Layer_1" xmlns="http://www.w3.org/2000/svg" xmlns:xlink="http://www.w3.org/1999/xlink" x="0px" y="0px"
	 viewBox="0 0 300 202.9" style="enable-background:new 0 0 300 202.9;" xml:space="preserve">
<style type="text/css">
	.st0{fill:none;stroke:#243670;stroke-width:3;stroke-linecap:round;stroke-linejoin:round;stroke-miterlimit:10;}
</style>
<g>
	<path class="st0" d="M132.6,144.8c-6-3.9-10.1-8.3-11.3-16.2c-0.8-6.1,0.8-9.5,4.7-13.1c22.6-20.7,37.6-46.2,48-74.8
		c2.1-5.8,1.4-10.9,2-15.7c-4-2.7-6.2-1.9-8.8,0.3c-18,15.3-25.8,36.9-34.4,57.7c-2.8,6.8-5.2,14.2-7.3,21.4
		c-1.2,4.1-0.7,7.3-0.5,11"/>
	<path class="st0" d="M196.7,143.7c12.9-0.3,26.4,0.7,36.8-8.8c25.6-23.4,45.6-50.7,55.4-84.6c4.4-15.1,2.3-25.3-5.4-29.3
		c-7.6-3.9-22.5,0.4-30.3,9.8c-9.2,11.1-16.6,23.4-24.1,35.7c-15,24.6-25.1,51.3-34.6,78.2"/>
	<path class="st0" d="M94.6,93.8c20.2-15.3,39-57.6,28.8-66.7c-13.7,13-18.9,30.4-25.6,47.1c-2.9,7.4-3.2,15.4-5.6,22.8
		c-3.5,11.1-13,17.7-21.4,25.2c-15.5,13.7-31.6,26.1-50.7,33.8c-4.3-0.5-6.3-4.6-10.2-4.6"/>
	<path class="st0" d="M207.6,26.5c3.2,3.3-0.1,6.5-1.3,8.6c-16.4,27.8-28.3,57.7-38.9,88.1"/>
	<path class="st0" d="M220.6,6.9c-5.5,9.1-13.4,16.2-20.3,24.1C184.3,49.4,174,71.5,165.8,94c-3.7,10-5.5,22.3-0.5,33.4
		c3.5,7.8-1.8,15.8,1.8,24.1c4.1,9.4,10.5,15.1,21,14"/>
	<path class="st0" d="M119.6,124.2c-8.1,6.1-15.6,13.1-25,17.3c-7.7,3.4-11.2,1.2-11.8-7.6c-0.4-6.1-0.1-12.3-0.1-18.5"/>
	<path class="st0" d="M223.8,142.7c-8.1,12.8-19.8,19.9-34.7,21.7"/>
	<path class="st0" d="M167.4,136.1c8.3,5.1,16.7,10.2,27.1,8.7"/>
	<path class="st0" d="M193.4,147c-2.3,12.8-7,25.1-8.6,38c-0.3,2.1,0,4.3,0,6.5"/>
</g>
</svg>
