<?xml version="1.0" encoding="utf-8"?>
<!-- Generator: Adobe Illustrator 22.1.0, SVG Export Plug-In . SVG Version: 6.00 Build 0)  -->
<svg version="1.1" id="Layer_1" xmlns="http://www.w3.org/2000/svg" xmlns:xlink="http://www.w3.org/1999/xlink" x="0px" y="0px"
	 viewBox="0 0 470 301" style="enable-background:new 0 0 470 301;" xml:space="preserve">
<style type="text/css">
	.st0{fill:#253570;}
</style>
<g>
	<path class="st0" d="M254.6,134.7c-0.6-3.5-1.6-7-1.6-10.4c0-6,4.3-8,9.4-8.6c5.6-0.7,6.1,3.6,7,7.6c0.7,2.9-1.3,8.2,1.9,8.3
		c4.2,0.2,2.4-5.6,3.9-8.5c1.6-3.1,2.4-6.7,3.8-9.9c1.2-2.7,1.7-7.2,5.8-6.2c4.6,1.2,1.9,5.2,1.4,8c-0.6,3.5-2.1,6.8-2.5,10.3
		c-0.6,5.3,1.5,7.7,6.9,5c5-2.5,9.6-5.1,11.1-11.4c1.2-4.9,3.8-9.5,5.8-14.2c1.1-2.7,2.6-5.4,6-4.2c3.4,1.2,2.7,4.3,2.1,7.1
		c-1.1,5.1-3.1,9.7-5.6,14.3c-1.1,2-2.3,4.5-0.3,6.6c2,2.1,4.3,1,6.6,0.3c9.5-3.2,16.7-8.4,18.9-19.1c0.9-4.5,2.3-9.3,5.9-12.7
		c1.4-1.4,3.3-2.4,5.4-1.4c2.2,1.1,1.9,3.1,1.4,5.1c-1,4.2-1.8,8.5-2.8,12.7l0.2-0.2c-1.3,1.5-3.5,2.9-3.6,4.5
		c-1.4,17.7-17.5,14.1-27.6,19.2c-1.6,0.8-4.5,1-5.8,0.1c-10.3-7.3-19.3,4-29.3,1.9c-3-0.6-4.1,3.8-4.6,6.2
		c-3.5,16.1-16,22.8-29.8,24.7c-22.4,3.1-30.1,17.7-33.9,36.6c-1.5,7.6-8.6,14.7-1.8,23.3c1.3,1.7-2.1,3.9-4.5,4.4
		c-3.8,0.7-6.2-1.3-6.8-4.9c-0.8-5.6,0.3-11,2.4-16.3c3.1-8.1,6-16.4,9-24.6c2-5.6,0.7-9.2-5.8-6.8c-29.5,10.6-59.9,18.4-89.7,28.1
		c-6.9,2.2-12.2,6.8-17,12.5c-20,23.4-43,43.4-70.9,57.1c-3.9,1.9-8.2,7.1-12.5,1.4c-3.7-4.8-2.9-10.4,0.3-15.6
		c7.9-13.2,18.7-23.8,31.1-32.4c14.4-9.9,29.5-18.8,46.9-22.5c13.6-2.9,19.2-15,26.7-24.3c9-11,15.9-23.7,23.6-35.7
		c1.2-1.8,3.9-4.1,2.2-6.1c-1.6-1.9-4.4,0-6.7,0.4c-15.8,3-30.9,1.3-44.8-7.2c-1.4-0.8-3-1.4-4-2.5c-2.6-3-9.3-5.8-5.7-9.9
		c3.4-3.9,6.2,2.3,8.9,4.7c13.7,12.6,41.8,16.2,57.1,6.8c6.3-3.9,8.9-10.9,12.8-16.9c19.1-29.2,38.2-58.4,57.4-87.5
		c2.4-3.6,5.2-7.1,8.1-10.3c3.7-4,9-6.9,13.7-4.6c4.9,2.4,5.6,8.5,4.2,13.8c-2.6,10-5.9,19.7-10.4,29.1c-2.4,5.1-10.2,12.6-5.7,15
		c6.3,3.3,8.4-6.9,11.7-11.7c10-14.3,19.2-29.3,33.7-39.7c3.6-2.6,7.9-7.6,12.5-3.7c3.7,3.2,0.8,8.4-1.1,12.2
		c-8.9,17.7-18.3,35.2-27.2,52.9c-11.9,23.8-21.6,48.5-30.2,73.7c-2.5,7.2-0.8,10.5,6.6,7c8.7-4.1,19.9-3.8,25.6-13.5
		c0.9-1.6,2.5-3.7,0.4-5.2c-0.8-0.6-3,0.3-4.3,0.9c-4.8,2.3-11.6,8-14,0.9c-2.6-7.3,3.7-12.9,12.1-13.8c1.4,3-3,5.2-1.1,8.2
		c1.4-1.1,3.2-2,4.3-3.5C261.1,134.9,256.8,135.5,254.6,134.7z M118.7,199c1.6-0.1,3.2,0,4.7-0.4c25.4-7.7,50.7-15.7,76.2-23.1
		c11.9-3.4,18.7-9.8,22.9-22.3c7.2-21.7,15.9-43,25.9-63.8c8.6-17.8,21.8-33.2,27.8-52.3c0.7-2.3,4.9-4.8,1.6-6.9
		c-2.3-1.5-4.7,2.2-6.7,3.9c-18.7,15.7-30.4,36.4-39.6,58.4c-8.1,19.5-18.8,37.5-29.4,55.5c-1.5,2.6-4.3,6.1-7.6,4
		c-3.7-2.5-0.4-5.9,1.3-8.2c11-15.3,18.1-32.6,26.3-49.2c1.3-2.6,4.4-6.5,1.1-8.5c-3.4-2.1-5.2,2.4-6.8,4.9
		c-13.3,20.6-30.7,36.1-53.6,45.3c-3.5,1.4-5.8,3.9-7.8,7c-12.1,18.6-24.2,37.2-36.3,55.8L118.7,199z M240.1,32.5
		c-0.5-4.2,0.3-8-3.7-9.2c-3.6-1.1-5.9,1.3-7.9,3.9c-14.8,19.2-26.7,40.2-39.3,60.8c-0.6,0.9-1.2,2.4-0.8,3.3c0.6,1.5,2.1,0.7,2.8,0
		c8.6-7.9,21.2-10.4,29-17.6C231.5,63,236.1,46.8,240.1,32.5z M22.5,271.8c0.8-0.2,1.6-0.4,2.3-0.7C48.3,259.2,68,242.2,85.8,223
		c0.7-0.8,1.4-2.5,1-3.1c-1.1-1.7-2.8-0.7-4.2-0.1c-21.3,8.8-41.7,19.1-57.7,36.4c-3.3,3.6-3.5,7.8-5.1,11.7
		C18.9,270.3,19.9,271.7,22.5,271.8z M168.4,127.1c12.9-6.4,23.7-15.6,34-25.3c0.5-0.4,0.4-1.4,0.6-2.2c-1-0.2-2.4-0.9-3-0.5
		c-11.1,7.3-24,12-32.2,23.3c-0.9,1.2-1,2.8-1.5,4.3C167,126.9,167.7,127,168.4,127.1z M264.3,123.8c-0.2-0.5-0.7-2.4-1.2-2.4
		c-2.3-0.1-3.5,1.8-4,3.7c-0.6,2.1,0.9,2.9,2.7,2.8C263.8,127.7,264.2,126.1,264.3,123.8z"/>
	<path class="st0" d="M345.2,113.4c8.8-6.6,15.8-15,26.6-19.5c6.4-2.7,7.4-2.5,7.6,3.9c0.2,5.1,0.7,10.3,1.4,15.4
		c0.2,1.8,1.2,4.8,2.2,4.9c2.2,0.3,2.9-2.4,3.4-4.1c3.6-12.4,12.9-20.6,21.4-29.3c3.6-3.6,8.9-11,13.3-6.1c4.1,4.6-5.1,7-7.8,10.8
		c-3.6,4.9-10.2,7.4-11.2,14.2c7.7,0.6,11-6.5,16.7-9.5c1-0.5,2-1.6,2.4-2.6c4.3-12,12.7-20,23.9-25.6c6.5-3.3,5-10.1,5.6-15.9
		c0.2-2.3-0.4-5.5,2.6-5.9c3.8-0.5,3.9,3.1,4.5,5.7c2.6,11.1-2.1,21.1-14.4,27.1c-6.5,3.2-10.8,7.2-13.8,13.7
		c-5,10.7-14.6,16.7-25.3,20.1c-13.1,4.2-18.6,10.3-18.5,24.1c0,6.7,0.4,13.5,0.5,20.2c0.1,9.2-5.1,15.6-11.6,21.1
		c-2.6,2.2-5.6,3.2-8.8,1.5c-3.2-1.7-3.7-4.8-3.5-8.2c0.4-6.6,4.3-11.9,7-17.6c3.9-8.3,7.2-16.7,6.7-26.2c-0.1-1.9,0.2-4.2-2-5.2
		c-2.4-1-3.4,1.2-4.8,2.5c-3.1,3.1-6.1,6.1-10.3,7.9c-4.2,1.8-8.4,3.4-12.4,0.4c-3.7-2.7-3-7-2.2-11c0.4-2.3,0.8-4.7,1.1-7
		L345.2,113.4z M371.4,105.9c-0.6-1.7-1.3-5.1-5-2.1c-5.9,4.6-12,9.3-14.1,17.1c-0.7,2.5-1,4.8,3.1,4.1
		C360.8,124,371.1,112.7,371.4,105.9z M378,154c-0.4-1.6-0.8-4.6-1.7-3.5c-3.5,4-5.6,9.1-6.7,14.3c-0.3,1.3,0.1,4.1,2,3
		C377,164.9,377.1,159.1,378,154z"/>
	<path class="st0" d="M316.5,83.3c0.1,1-0.7,2.2-2.4,2.5c-2.2,0.4-3.8-0.8-4.4-2.7c-0.7-2.1,0.4-3.8,2.8-3.9
		C314.7,79.1,316.1,80.3,316.5,83.3z"/>
</g>
</svg>
